<svg width="1756" height="2099" xmlns="http://www.w3.org/2000/svg" xmlns:xlink="http://www.w3.org/1999/xlink" xml:space="preserve" overflow="hidden"><defs><clipPath id="clip0"><rect x="1405" y="356" width="1756" height="2099"/></clipPath></defs><g clip-path="url(#clip0)" transform="translate(-1405 -356)"><path d="M1725.06 1545.46C1725.06 1545.46 1719.42 1553.32 1716.94 1557.47 1712.76 1564.45 1708.68 1573.19 1705.61 1579.07 1696.98 1595.62 1687.59 1615.81 1681.91 1629.8 1668.95 1661.7 1656.84 1701.01 1652.01 1728.67 1646.53 1760.08 1641.34 1806.71 1642.34 1845.92 1642.88 1867.16 1645.11 1898.72 1648.77 1924.87 1651.77 1946.29 1661.45 1988.5 1661.45 1988.5 1661.45 1988.5 1669.19 1966.28 1673.7 1955.42 1683.06 1932.89 1693.04 1910.57 1704.4 1888.98 1714.24 1870.28 1724.64 1851.78 1736.77 1834.47 1766.52 1792.01 1798.38 1750.52 1835.33 1714.17 1862.82 1687.13 1902.69 1650.44 1939.01 1621.73 1954.72 1609.31 1977.93 1591.93 1998.06 1577.97 2014.5 1566.57 2048.42 1545.35 2048.42 1545.35 2048.42 1545.35 2055.11 1574.31 2057.1 1589.01 2059.81 1608.96 2060.81 1633.09 2061.54 1649.25 2063.53 1693.22 2056.95 1781.21 2056.95 1781.21 2056.95 1781.21 2072 1736.31 2081.58 1714.7 2094.09 1686.46 2112.42 1653.88 2124.31 1632.51 2160.78 1566.98 2211.26 1491.08 2249.54 1445.6 2292.32 1394.79 2340.75 1336.12 2396.29 1292.34 2430.38 1265.47 2475.22 1240.42 2508.77 1226.74 2516.51 1223.58 2525.65 1221.38 2534.36 1219.96 2546.55 1217.96 2559.31 1217.25 2571.35 1217.56 2591.23 1218.06 2609.98 1222.82 2630.44 1227.22 2647.09 1230.8 2662.29 1237 2677.52 1243.68 2693.62 1250.74 2711.97 1259.97 2724.05 1268.53 2741.58 1280.95 2768.81 1307.62 2777.45 1334.53 2778.89 1339.01 2780.45 1344.5 2781.69 1350.64 2782.63 1355.35 2783.38 1360.58 2783.73 1365.19 2784.63 1377.09 2783.24 1387.07 2783.24 1387.07 2783.24 1387.07 2801.02 1370.25 2818.55 1346.44 2823.47 1339.75 2831.05 1328.55 2836.44 1319.08 2839.13 1314.36 2843.63 1304.44 2843.63 1304.44 2852.43 1287.78 2857.38 1271.71 2861.75 1254.57 2864.58 1243.46 2866.2 1231.99 2866.9 1220.54 2868.23 1198.76 2867.23 1176.81 2865.03 1155.1 2864.08 1145.78 2861.68 1136.2 2860.17 1127.43 2857.27 1110.61 2852.18 1096.63 2846.56 1080.52 2842.32 1068.36 2836.72 1055.07 2831.37 1042.52 2826.47 1031.01 2822.89 1020.51 2815.89 1008.32 2805.13 989.59 2786.19 956.552 2770.21 931.369 2761.15 917.099 2749.85 900.804 2741.76 889.392 2700.33 830.957 2643.16 766.09 2603.82 724.631 2548.34 666.176 2453.58 579.738 2372.76 513.923 2344.42 490.849 2290.61 447.931 2252.29 421.147 2244.89 415.976 2232.77 408.375 2222.47 402.924 2218.53 400.838 2210.29 397.406 2210.29 397.406 2210.29 397.406 2203.94 395.699 2200.7 395.709 2192.84 395.733 2184.95 397.411 2177.52 399.956 2173.11 401.47 2165.09 406.41 2165.09 406.41 2165.09 406.41 2176.72 411.093 2182.13 415.357 2187.23 419.371 2187.14 417.608 2195.33 430.921 2197.99 435.23 2201.52 446.46 2202.17 458.748 2203.14 477.035 2199.59 497.084 2199.59 497.084 2199.59 497.084 2192.93 554.631 2185.07 582.519 2175.93 614.984 2165.26 648.107 2152.55 679.873 2143.85 701.613 2130.29 726.41 2122.71 743.465 2093.69 808.788 2050.89 868.514 2005.3 923.624 1984.19 949.144 1954.67 983.197 1926.48 1010.17 1906.45 1029.31 1876.01 1056.18 1849.48 1077.6 1824.86 1097.47 1803.34 1112.66 1803.34 1112.66 1803.34 1112.66 1821.14 1078.65 1827.6 1060.65 1833.57 1044.01 1837.63 1023.62 1840.85 1009.29 1847.12 981.374 1848.9 923.826 1848.9 923.826 1848.9 923.826 1854 925.579 1856.29 926.958 1860.49 929.48 1865.08 933.294 1867.69 936.215 1873.48 942.697 1878.71 951.045 1882.21 956.82 1885.74 962.655 1890.17 972.52 1893 980.824 1895.69 988.726 1898.83 1005.19 1898.83 1005.19 1898.83 1005.19 1910.66 981.287 1914.58 968.599 1918.7 955.232 1921.49 938.717 1922.6 927.405 1925.96 892.896 1919.06 850.817 1913.23 823.81 1907.32 796.413 1897.12 770.417 1886.69 744.596 1877.89 722.803 1867.55 701.717 1856.39 680.934 1820.1 613.38 1775.61 549.731 1725.14 492.018 1701.07 464.497 1674.09 439.046 1644.2 418.002 1614.99 397.442 1582.08 381.011 1549.47 367.955 1525.21 358.243 1498.05 356.707 1471.92 356.504 1459.43 356.406 1446.86 358.249 1434.77 361.399 1424.61 364.048 1405.5 373.051 1405.5 373.051 1405.5 373.051 1421.94 375.4 1430.69 377.61 1437.17 379.246 1449.77 383.335 1449.77 383.335 1449.77 383.335 1448 394.19 1449.99 400.373 1451.48 405.032 1452.68 409.816 1455.56 413.667 1457.93 416.852 1460.23 419.458 1462.51 422.4 1463.29 423.413 1464.22 424.682 1464.82 425.471 1465.2 425.965 1466.3 427.185 1466.64 425.911 1466.93 424.804 1466.89 423.686 1467.06 422.58 1467.23 421.467 1467.32 420.608 1467.67 419.257 1468.76 414.996 1470.56 409.661 1473.6 405.829 1475.75 403.113 1478.48 400.076 1481.91 399.58 1486.65 398.895 1491.57 401.695 1495.37 404.605 1499.69 407.919 1502.06 413.239 1504.88 417.898 1508.36 423.632 1511.31 429.694 1513.98 435.845 1525.47 462.284 1537.32 489.18 1543.7 517.061 1556.84 574.49 1561.84 644.674 1564.49 694.37 1565.48 712.825 1564.34 735.546 1563 756.079 1560.95 787.513 1558.99 819.262 1555.66 850.733 1552.17 883.733 1547.53 916.49 1542.43 949.4 1534.58 1000.09 1511.63 1100.15 1511.63 1100.15 1511.63 1100.15 1525.3 1102.12 1531.43 1106.12 1535 1108.45 1536.48 1110.58 1538.8 1112.98 1540.44 1114.69 1543.5 1118.31 1543.5 1118.31 1543.5 1118.31 1556.5 1117.66 1562.98 1118.13 1568.94 1118.56 1576.06 1119.94 1580.7 1120.88 1588.07 1122.38 1595.09 1125.34 1601.96 1128.39 1609.14 1131.57 1618.36 1135.21 1622.68 1139.57 1623.59 1140.48 1625.52 1139.01 1625.52 1138.01 1625.51 1119.14 1625.77 1100.17 1628.93 1081.52 1630.45 1072.59 1633.63 1058.96 1636.27 1047.75 1637.21 1043.78 1638.19 1039.73 1639.29 1035.89 1640.05 1033.28 1640.59 1029.16 1643.49 1028.88 1647.22 1028.52 1648.65 1030.47 1650.46 1031.91 1653.74 1034.54 1656.52 1037.18 1659.88 1039.95 1666.03 1045.02 1672.57 1052.12 1677.09 1056.58 1685.81 1065.16 1694.57 1076.27 1701.37 1084.12 1712.82 1097.36 1722.86 1111.83 1732.19 1126.63 1735.24 1131.46 1737.96 1136.5 1740.36 1141.68 1743.33 1148.11 1747.6 1155.8 1748.03 1161.51 1748.29 1164.92 1745.54 1171.28 1745.54 1171.28L1740.3 1165.51C1740.3 1165.51 1734.07 1151.89 1730.24 1145.48 1720.32 1128.86 1709.08 1113.25 1696.91 1097.94 1681.64 1078.75 1647.93 1041.97 1647.93 1041.97L1639.39 1116.43C1639.39 1116.43 1639.05 1130.65 1639.01 1137.76 1638.97 1143.88 1640.17 1151.22 1639.1 1156.12 1638.42 1159.23 1635.73 1164.38 1635.73 1164.38 1635.73 1164.38 1628.64 1156.79 1624.34 1153.89 1620.51 1151.29 1615.53 1148.55 1610.88 1146.34 1601.43 1141.82 1592.04 1137.76 1581.69 1134.69 1567.39 1130.45 1537.55 1127.44 1537.55 1127.44 1537.55 1127.44 1515.27 1105.89 1504.84 1094.45 1491.39 1079.7 1466.36 1048.58 1466.36 1048.58 1466.36 1048.58 1465.36 1067.76 1465.49 1077.36 1465.69 1091.7 1467.11 1108.77 1467.99 1120.31 1468.84 1131.52 1471.44 1151.52 1473.75 1167.05 1474.63 1173 1476.84 1184.84 1476.84 1184.84L1422.32 1280.82 1442.87 1324.75C1442.87 1324.75 1474.97 1341.77 1491.34 1349.62 1497.63 1352.63 1503.95 1355.62 1510.45 1358.14 1521.47 1362.41 1533.6 1366.63 1544.1 1369.28 1548.66 1370.44 1555.03 1372.06 1560.6 1372.86 1568.23 1373.95 1583.66 1374.48 1583.66 1374.48 1583.66 1374.48 1588.84 1385.45 1591.44 1390.94 1594.26 1396.89 1597.39 1404.35 1599.9 1408.77 1606.57 1420.5 1613.42 1431.54 1621.51 1441.98 1624.76 1446.18 1628.4 1450.09 1632.27 1453.72 1637.41 1458.55 1643.32 1463.13 1648.73 1467.01 1653.01 1470.07 1660.58 1473.65 1666.58 1476.83 1671.97 1479.69 1682.87 1485.15 1682.87 1485.15 1682.87 1485.15 1689 1491.08 1691.74 1494.34 1697.59 1501.34 1703.53 1510.35 1707.76 1516.52 1714.12 1525.78 1725.06 1545.46 1725.06 1545.46Z" stroke="#404040" stroke-width="0.220505" stroke-miterlimit="8" fill="#404040" fill-rule="evenodd"/><path d="M1538.5 1255.65C1538.5 1255.65 1551.66 1238.87 1559.49 1231.28 1562.79 1228.07 1567.86 1223.48 1572.49 1220.14 1576.49 1217.25 1585.16 1212.5 1585.16 1212.5 1585.16 1212.5 1586.7 1232.29 1583.2 1241.24 1580.68 1247.69 1576.6 1254.03 1570.18 1257.45 1566.15 1259.6 1561.19 1259.38 1556.63 1259.49 1552.99 1259.58 1549.32 1259.23 1545.78 1258.4 1543.25 1257.8 1538.5 1255.65 1538.5 1255.65Z" stroke="#000000" stroke-width="0.220505" stroke-miterlimit="8" fill-rule="evenodd"/><text font-family="Arial Black,Arial Black_MSFontService,sans-serif" font-weight="900" font-size="550" transform="matrix(1 0 0 1 2325.5 1979)">7</text></g></svg>